<svg width="166" height="160" viewBox="0 0 166 160" fill="none" xmlns="http://www.w3.org/2000/svg">
<path fill-rule="evenodd" clip-rule="evenodd" d="M85.7852 0.0360206C101.496 -0.682995 115.271 9.49381 128.538 18.7928C142.692 28.7146 159.881 37.6645 164.714 55.3621C169.527 72.985 159.777 90.8775 152.791 107.595C146.594 122.426 138.989 136.503 126.876 145.912C114.885 155.225 100.348 161.615 85.7852 159.641C71.9985 157.773 63.7442 142.784 51.4371 135.689C35.8671 126.713 13.2706 129.457 4.4181 112.735C-4.44637 95.9896 1.49371 73.5911 9.39468 56.2707C16.6576 40.3489 32.0889 32.492 45.5382 22.5914C58.3669 13.1476 70.3688 0.741563 85.7852 0.0360206Z" fill="#608AF5"/>
<path d="M52.9583 73.75H44.625C43.5199 73.75 42.4601 74.189 41.6787 74.9704C40.8973 75.7518 40.4583 76.8116 40.4583 77.9167C40.4583 79.0217 40.8973 80.0815 41.6787 80.8629C42.4601 81.6443 43.5199 82.0833 44.625 82.0833H52.9583C54.0634 82.0833 55.1232 81.6443 55.9046 80.8629C56.686 80.0815 57.125 79.0217 57.125 77.9167C57.125 76.8116 56.686 75.7518 55.9046 74.9704C55.1232 74.189 54.0634 73.75 52.9583 73.75ZM122.875 61.9167V61.6667C121.681 60.2075 120.173 59.0372 118.463 58.2435C116.753 57.4497 114.885 57.0531 113 57.0833H79.9583C76.8967 57.0558 73.9314 58.153 71.625 60.1667V60.1667C69.4708 62.0647 68.0546 64.6613 67.625 67.5L63.9583 88.3333C63.643 90.1325 63.7258 91.9789 64.201 93.7425C64.6761 95.5062 65.5319 97.1444 66.7083 98.5417C67.8786 99.9343 69.3387 101.055 70.9867 101.825C72.6347 102.595 74.431 102.996 76.25 103H109.333C112.305 103.045 115.196 102.029 117.487 100.136C119.777 98.242 121.318 95.5939 121.833 92.6667L125.5 71.8333C125.789 70.0888 125.704 68.3028 125.252 66.5933C124.799 64.8839 123.989 63.2899 122.875 61.9167V61.9167ZM111.458 65.4167L97.2917 76.9167C96.4541 77.5917 95.3878 77.9167 94.3161 77.8235C93.2443 77.7303 92.2502 77.2262 91.5417 76.4167L81.8333 65.4167H111.458ZM113.458 91.125C113.29 92.1033 112.777 92.9892 112.013 93.6233C111.249 94.2573 110.284 94.5978 109.292 94.5833H76.25C75.6449 94.5782 75.0482 94.4414 74.5013 94.1824C73.9545 93.9233 73.4706 93.5483 73.0833 93.0833C72.6951 92.6208 72.412 92.0794 72.2538 91.4967C72.0955 90.9139 72.0658 90.3037 72.1667 89.7083L75.5 70.8333L85.2917 81.9167C87.4229 84.339 90.4083 85.8435 93.6233 86.1153C96.8384 86.3871 100.034 85.4052 102.542 83.375L116.875 71.6667L113.458 91.125ZM57.125 57.0833H44.625C43.5199 57.0833 42.4601 57.5223 41.6787 58.3037C40.8973 59.0851 40.4583 60.1449 40.4583 61.25C40.4583 62.3551 40.8973 63.4149 41.6787 64.1963C42.4601 64.9777 43.5199 65.4167 44.625 65.4167H57.125C58.2301 65.4167 59.2899 64.9777 60.0713 64.1963C60.8527 63.4149 61.2917 62.3551 61.2917 61.25C61.2917 60.1449 60.8527 59.0851 60.0713 58.3037C59.2899 57.5223 58.2301 57.0833 57.125 57.0833Z" fill="white"/>
</svg>
