<svg width="145" height="25" viewBox="0 0 145 25" fill="none" xmlns="http://www.w3.org/2000/svg">
<path d="M6.85001 18.675C5.56668 18.675 4.41668 18.4667 3.40001 18.05C2.38335 17.6333 1.56668 17.0167 0.950012 16.2C0.350012 15.3833 0.0333456 14.4 1.2286e-05 13.25H4.55001C4.61668 13.9 4.84168 14.4 5.22501 14.75C5.60835 15.0833 6.10835 15.25 6.72501 15.25C7.35835 15.25 7.85835 15.1083 8.22501 14.825C8.59168 14.525 8.77501 14.1167 8.77501 13.6C8.77501 13.1667 8.62501 12.8083 8.32501 12.525C8.04168 12.2417 7.68335 12.0083 7.25001 11.825C6.83335 11.6417 6.23335 11.4333 5.45001 11.2C4.31668 10.85 3.39168 10.5 2.67501 10.15C1.95835 9.8 1.34168 9.28333 0.825012 8.6C0.308346 7.91667 0.0500123 7.025 0.0500123 5.925C0.0500123 4.29167 0.641679 3.01667 1.82501 2.1C3.00835 1.16667 4.55001 0.7 6.45001 0.7C8.38335 0.7 9.94168 1.16667 11.125 2.1C12.3083 3.01667 12.9417 4.3 13.025 5.95H8.40001C8.36668 5.38333 8.15835 4.94167 7.77501 4.625C7.39168 4.29167 6.90001 4.125 6.30001 4.125C5.78335 4.125 5.36668 4.26667 5.05001 4.55C4.73335 4.81667 4.57501 5.20833 4.57501 5.725C4.57501 6.29167 4.84168 6.73333 5.37501 7.05C5.90835 7.36667 6.74168 7.70833 7.87501 8.075C9.00835 8.45833 9.92501 8.825 10.625 9.175C11.3417 9.525 11.9583 10.0333 12.475 10.7C12.9917 11.3667 13.25 12.225 13.25 13.275C13.25 14.275 12.9917 15.1833 12.475 16C11.975 16.8167 11.2417 17.4667 10.275 17.95C9.30835 18.4333 8.16668 18.675 6.85001 18.675ZM29.5809 4.4C31.1809 4.4 32.4642 4.93333 33.4309 6C34.3975 7.05 34.8809 8.5 34.8809 10.35V18.5H30.6309V10.925C30.6309 9.99167 30.3892 9.26667 29.9059 8.75C29.4225 8.23333 28.7725 7.975 27.9559 7.975C27.1392 7.975 26.4892 8.23333 26.0059 8.75C25.5225 9.26667 25.2809 9.99167 25.2809 10.925V18.5H21.0059V-2.38419e-07H25.2809V6.425C25.7142 5.80833 26.3059 5.31667 27.0559 4.95C27.8059 4.58333 28.6475 4.4 29.5809 4.4ZM56.7516 4.55V18.5H52.4766V16.6C52.0432 17.2167 51.4516 17.7167 50.7016 18.1C49.9682 18.4667 49.1516 18.65 48.2516 18.65C47.1849 18.65 46.2432 18.4167 45.4266 17.95C44.6099 17.4667 43.9766 16.775 43.5266 15.875C43.0766 14.975 42.8516 13.9167 42.8516 12.7V4.55H47.1016V12.125C47.1016 13.0583 47.3432 13.7833 47.8266 14.3C48.3099 14.8167 48.9599 15.075 49.7766 15.075C50.6099 15.075 51.2682 14.8167 51.7516 14.3C52.2349 13.7833 52.4766 13.0583 52.4766 12.125V4.55H56.7516ZM82.7473 4.4C84.4806 4.4 85.8556 4.925 86.8723 5.975C87.9056 7.025 88.4223 8.48333 88.4223 10.35V18.5H84.1723V10.925C84.1723 10.025 83.9306 9.33333 83.4473 8.85C82.9806 8.35 82.3306 8.1 81.4973 8.1C80.6639 8.1 80.0056 8.35 79.5223 8.85C79.0556 9.33333 78.8223 10.025 78.8223 10.925V18.5H74.5723V10.925C74.5723 10.025 74.3306 9.33333 73.8473 8.85C73.3806 8.35 72.7306 8.1 71.8973 8.1C71.0639 8.1 70.4056 8.35 69.9223 8.85C69.4556 9.33333 69.2223 10.025 69.2223 10.925V18.5H64.9473V4.55H69.2223V6.3C69.6556 5.71667 70.2223 5.25833 70.9223 4.925C71.6223 4.575 72.4139 4.4 73.2973 4.4C74.3473 4.4 75.2806 4.625 76.0973 5.075C76.9306 5.525 77.5806 6.16667 78.0473 7C78.5306 6.23333 79.1889 5.60833 80.0223 5.125C80.8556 4.64167 81.7639 4.4 82.7473 4.4Z" fill="#002265"/>
<path d="M101.762 18.725C100.712 18.725 99.7705 18.55 98.9371 18.2C98.1038 17.8333 97.4455 17.3333 96.9621 16.7C96.4788 16.05 96.2121 15.3083 96.1621 14.475H98.5121C98.5788 15.1583 98.8955 15.7167 99.4621 16.15C100.045 16.5833 100.804 16.8 101.737 16.8C102.604 16.8 103.287 16.6083 103.787 16.225C104.287 15.8417 104.537 15.3583 104.537 14.775C104.537 14.175 104.27 13.7333 103.737 13.45C103.204 13.15 102.379 12.8583 101.262 12.575C100.245 12.3083 99.4121 12.0417 98.7621 11.775C98.1288 11.4917 97.5788 11.0833 97.1121 10.55C96.6621 10 96.4371 9.28333 96.4371 8.4C96.4371 7.7 96.6455 7.05833 97.0621 6.475C97.4788 5.89167 98.0705 5.43333 98.8371 5.1C99.6038 4.75 100.479 4.575 101.462 4.575C102.979 4.575 104.204 4.95833 105.137 5.725C106.07 6.49167 106.57 7.54167 106.637 8.875H104.362C104.312 8.15833 104.02 7.58333 103.487 7.15C102.97 6.71667 102.27 6.5 101.387 6.5C100.57 6.5 99.9205 6.675 99.4371 7.025C98.9538 7.375 98.7121 7.83333 98.7121 8.4C98.7121 8.85 98.8538 9.225 99.1371 9.525C99.4371 9.80833 99.8038 10.0417 100.237 10.225C100.687 10.3917 101.304 10.5833 102.087 10.8C103.07 11.0667 103.87 11.3333 104.487 11.6C105.104 11.85 105.629 12.2333 106.062 12.75C106.512 13.2667 106.745 13.9417 106.762 14.775C106.762 15.525 106.554 16.2 106.137 16.8C105.72 17.4 105.129 17.875 104.362 18.225C103.612 18.5583 102.745 18.725 101.762 18.725ZM122.749 18.5L117.374 12.45V18.5H115.099V-2.38419e-07H117.374V10.875L122.649 4.8H125.824L119.374 11.625L125.849 18.5H122.749ZM144.89 4.8L136.64 24.95H134.29L136.99 18.35L131.465 4.8H133.99L138.29 15.9L142.54 4.8H144.89Z" fill="#14279B"/>
</svg>
