<svg xmlns="http://www.w3.org/2000/svg">
    <symbol id="github" viewBox="0 0 100 100">
        <path d="M50 9.36124C40.1061 9.36165 30.5352 12.8825 22.9998 19.2939C15.4644 25.7053 10.4562 34.5888 8.87136 44.3549C7.28649 54.121 9.22838 64.1324 14.3496 72.5977C19.4707 81.063 27.437 87.4299 36.823 90.5591C38.9063 90.9238 39.6876 89.6738 39.6876 88.5799C39.6876 87.5904 39.6354 84.3091 39.6354 80.8196C29.1666 82.7466 26.4583 78.2676 25.625 75.9239C24.7003 73.6444 23.2345 71.6243 21.3541 70.0383C19.8958 69.2571 17.8125 67.33 21.302 67.278C22.6345 67.4226 23.9124 67.8862 25.0276 68.6296C26.1428 69.3731 27.0623 70.3744 27.7083 71.5487C28.2782 72.5724 29.0445 73.4737 29.9633 74.2008C30.8821 74.9278 31.9353 75.4665 33.0626 75.7858C34.1899 76.1051 35.3692 76.1989 36.5328 76.0617C37.6964 75.9245 38.8215 75.559 39.8436 74.9862C40.024 72.868 40.9681 70.8874 42.5 69.4134C33.2291 68.3718 23.5416 64.7779 23.5416 48.8405C23.4831 44.6995 25.0112 40.6929 27.8125 37.6426C26.5386 34.0435 26.6877 30.0938 28.2291 26.6009C28.2291 26.6009 31.7186 25.5072 39.6875 30.8718C46.5053 28.9967 53.7029 28.9967 60.5208 30.8718C68.4895 25.4551 71.9791 26.6009 71.9791 26.6009C73.5208 30.0937 73.6698 34.0436 72.3958 37.6426C75.2056 40.6877 76.735 44.6977 76.6666 48.8405C76.6666 64.83 66.927 68.3718 57.6562 69.4134C58.6506 70.4213 59.4164 71.6313 59.9017 72.9614C60.387 74.2914 60.5804 75.7104 60.4687 77.1218C60.4687 82.6948 60.4166 87.1738 60.4166 88.5801C60.4166 89.6739 61.1979 90.9759 63.2812 90.5593C72.6506 87.4046 80.594 81.0228 85.6934 72.5531C90.7927 64.0834 92.7162 54.0772 91.1203 44.3206C89.5245 34.5639 84.5132 25.692 76.9811 19.2884C69.449 12.8848 59.8863 9.36638 50 9.36124V9.36124Z"
              fill="currentColor"/>
    </symbol>

    <symbol id="instagram" viewBox="0 0 100 100">
        <path d="M72.25 22.7502C71.2611 22.7502 70.2944 23.0435 69.4722 23.5929C68.6499 24.1423 68.009 24.9232 67.6306 25.8368C67.2522 26.7504 67.1532 27.7558 67.3461 28.7257C67.539 29.6956 68.0152 30.5865 68.7145 31.2858C69.4137 31.985 70.3047 32.4612 71.2746 32.6541C72.2445 32.8471 73.2498 32.7481 74.1634 32.3696C75.0771 31.9912 75.8579 31.3503 76.4074 30.5281C76.9568 29.7058 77.25 28.7391 77.25 27.7502C77.25 26.4241 76.7232 25.1524 75.7855 24.2147C74.8479 23.277 73.5761 22.7502 72.25 22.7502ZM91.4167 32.8336C91.3356 29.3765 90.6882 25.9561 89.5 22.7086C88.4406 19.9299 86.7916 17.4139 84.6667 15.3336C82.6034 13.1978 80.0815 11.5593 77.2917 10.5419C74.0527 9.31756 70.6285 8.65527 67.1667 8.58356C62.75 8.33356 61.3333 8.33356 50 8.33356C38.6667 8.33356 37.25 8.33356 32.8333 8.58356C29.3715 8.65527 25.9473 9.31756 22.7083 10.5419C19.9237 11.5696 17.4039 13.2067 15.3333 15.3336C13.1976 17.3968 11.5591 19.9187 10.5417 22.7086C9.31735 25.9475 8.65505 29.3717 8.58334 32.8336C8.33334 37.2502 8.33334 38.6669 8.33334 50.0002C8.33334 61.3336 8.33334 62.7502 8.58334 67.1669C8.65505 70.6288 9.31735 74.053 10.5417 77.2919C11.5591 80.0817 13.1976 82.6036 15.3333 84.6669C17.4039 86.7937 19.9237 88.4308 22.7083 89.4585C25.9473 90.6829 29.3715 91.3452 32.8333 91.4169C37.25 91.6669 38.6667 91.6669 50 91.6669C61.3333 91.6669 62.75 91.6669 67.1667 91.4169C70.6285 91.3452 74.0527 90.6829 77.2917 89.4585C80.0815 88.4411 82.6034 86.8026 84.6667 84.6669C86.801 82.5943 88.4514 80.076 89.5 77.2919C90.6882 74.0444 91.3356 70.624 91.4167 67.1669C91.4167 62.7502 91.6667 61.3336 91.6667 50.0002C91.6667 38.6669 91.6667 37.2502 91.4167 32.8336ZM83.9167 66.6669C83.8863 69.3118 83.4073 71.9323 82.5 74.4169C81.8347 76.2302 80.7662 77.8687 79.375 79.2086C78.0235 80.5857 76.3885 81.652 74.5833 82.3336C72.0988 83.2409 69.4782 83.7199 66.8333 83.7502C62.6667 83.9586 61.125 84.0002 50.1667 84.0002C39.2083 84.0002 37.6667 84.0002 33.5 83.7502C30.7537 83.8016 28.0192 83.3788 25.4167 82.5002C23.6908 81.7839 22.1307 80.7202 20.8333 79.3752C19.4504 78.0367 18.3952 76.3969 17.75 74.5835C16.7327 72.0634 16.1685 69.3833 16.0833 66.6669C16.0833 62.5002 15.8333 60.9586 15.8333 50.0002C15.8333 39.0419 15.8333 37.5002 16.0833 33.3336C16.102 30.6296 16.5956 27.95 17.5417 25.4169C18.2752 23.6582 19.4011 22.0905 20.8333 20.8336C22.0992 19.4009 23.6637 18.2631 25.4167 17.5002C27.9565 16.5837 30.6333 16.1047 33.3333 16.0836C37.5 16.0836 39.0417 15.8336 50 15.8336C60.9583 15.8336 62.5 15.8336 66.6667 16.0836C69.3116 16.1139 71.9321 16.5929 74.4167 17.5002C76.3101 18.2029 78.0096 19.3454 79.375 20.8336C80.7404 22.1135 81.8073 23.6783 82.5 25.4169C83.4261 27.9541 83.9054 30.6326 83.9167 33.3336C84.125 37.5002 84.1667 39.0419 84.1667 50.0002C84.1667 60.9586 84.125 62.5002 83.9167 66.6669ZM50 28.6252C45.7742 28.6335 41.6457 29.8941 38.1361 32.2478C34.6265 34.6015 31.8933 37.9427 30.2818 41.8492C28.6704 45.7557 28.253 50.0522 29.0825 54.1958C29.9119 58.3394 31.951 62.1441 34.942 65.1293C37.933 68.1145 41.7417 70.1461 45.8869 70.9675C50.0321 71.7889 54.3278 71.3632 58.2311 69.7441C62.1345 68.1251 65.4703 65.3854 67.8172 61.8712C70.1641 58.357 71.4167 54.226 71.4167 50.0002C71.4222 47.1882 70.8717 44.4027 69.7968 41.8042C68.722 39.2057 67.144 36.8453 65.1536 34.8588C63.1633 32.8723 60.7998 31.2989 58.1992 30.2291C55.5985 29.1593 52.8121 28.6142 50 28.6252ZM50 63.8752C47.2558 63.8752 44.5732 63.0615 42.2915 61.5369C40.0097 60.0123 38.2313 57.8453 37.1812 55.31C36.131 52.7746 35.8562 49.9848 36.3916 47.2933C36.927 44.6019 38.2484 42.1296 40.1889 40.1891C42.1294 38.2487 44.6016 36.9272 47.2931 36.3918C49.9846 35.8565 52.7744 36.1312 55.3097 37.1814C57.8451 38.2316 60.012 40.01 61.5367 42.2917C63.0613 44.5734 63.875 47.256 63.875 50.0002C63.875 51.8223 63.5161 53.6266 62.8188 55.31C62.1216 56.9933 61.0995 58.5229 59.8111 59.8113C58.5227 61.0997 56.9931 62.1218 55.3097 62.819C53.6264 63.5163 51.8221 63.8752 50 63.8752Z"
              fill="currentColor"/>
    </symbol>

    <symbol id="email" viewBox="0 0 100 100">
        <path d="M19.9583 43.75H11.625C10.5199 43.75 9.46012 44.189 8.67872 44.9704C7.89731 45.7518 7.45833 46.8116 7.45833 47.9167C7.45833 49.0217 7.89731 50.0815 8.67872 50.8629C9.46012 51.6443 10.5199 52.0833 11.625 52.0833H19.9583C21.0634 52.0833 22.1232 51.6443 22.9046 50.8629C23.686 50.0815 24.125 49.0217 24.125 47.9167C24.125 46.8116 23.686 45.7518 22.9046 44.9704C22.1232 44.189 21.0634 43.75 19.9583 43.75ZM89.875 31.9167V31.6667C88.6812 30.2075 87.1728 29.0372 85.4627 28.2435C83.7526 27.4497 81.8851 27.0531 80 27.0833H46.9583C43.8967 27.0558 40.9314 28.153 38.625 30.1667V30.1667C36.4708 32.0647 35.0546 34.6613 34.625 37.5L30.9583 58.3333C30.643 60.1325 30.7258 61.9789 31.201 63.7425C31.6761 65.5062 32.5319 67.1444 33.7083 68.5417C34.8786 69.9343 36.3387 71.0547 37.9867 71.8248C39.6347 72.5948 41.431 72.9959 43.25 73H76.3333C79.3052 73.0449 82.1958 72.0294 84.4866 70.1357C86.7774 68.242 88.3185 65.5939 88.8333 62.6667L92.5 41.8333C92.7888 40.0888 92.7041 38.3028 92.2516 36.5933C91.7991 34.8839 90.9891 33.2899 89.875 31.9167V31.9167ZM78.4583 35.4167L64.2917 46.9167C63.4541 47.5917 62.3878 47.9167 61.3161 47.8235C60.2443 47.7303 59.2502 47.2262 58.5417 46.4167L48.8333 35.4167H78.4583ZM80.4583 61.125C80.2897 62.1033 79.7772 62.9892 79.0134 63.6233C78.2495 64.2573 77.2843 64.5978 76.2917 64.5833H43.25C42.6449 64.5782 42.0482 64.4414 41.5013 64.1824C40.9545 63.9233 40.4706 63.5483 40.0833 63.0833C39.6951 62.6208 39.412 62.0794 39.2538 61.4967C39.0955 60.9139 39.0658 60.3037 39.1667 59.7083L42.5 40.8333L52.2917 51.9167C54.4229 54.339 57.4083 55.8435 60.6233 56.1153C63.8384 56.3871 67.034 55.4052 69.5417 53.375L83.875 41.6667L80.4583 61.125ZM24.125 27.0833H11.625C10.5199 27.0833 9.46012 27.5223 8.67872 28.3037C7.89731 29.0851 7.45833 30.1449 7.45833 31.25C7.45833 32.3551 7.89731 33.4149 8.67872 34.1963C9.46012 34.9777 10.5199 35.4167 11.625 35.4167H24.125C25.2301 35.4167 26.2899 34.9777 27.0713 34.1963C27.8527 33.4149 28.2917 32.3551 28.2917 31.25C28.2917 30.1449 27.8527 29.0851 27.0713 28.3037C26.2899 27.5223 25.2301 27.0833 24.125 27.0833Z"
              fill="currentColor"/>
    </symbol>

    <symbol id="phone" viewBox="0 0 100 100">
        <path d="M81 54.1667C80.0833 54.1667 79.125 53.875 78.2083 53.6667C76.352 53.2576 74.5278 52.7145 72.75 52.0417C70.817 51.3385 68.6923 51.375 66.7846 52.1442C64.877 52.9134 63.3212 54.361 62.4167 56.2083L61.5 58.0833C57.4417 55.8258 53.7124 53.0218 50.4167 49.75C47.1449 46.4542 44.3409 42.725 42.0833 38.6667L43.8333 37.5C45.6807 36.5955 47.1282 35.0397 47.8975 33.1321C48.6667 31.2244 48.7032 29.0996 48 27.1667C47.3384 25.3851 46.7956 23.5617 46.375 21.7083C46.1667 20.7917 46 19.8333 45.875 18.875C45.369 15.9401 43.8318 13.2823 41.5401 11.3802C39.2484 9.47808 36.3529 8.45671 33.375 8.50001H20.875C19.0793 8.48315 17.301 8.8534 15.6613 9.58555C14.0215 10.3177 12.5588 11.3946 11.3726 12.7429C10.1865 14.0911 9.30472 15.6792 8.78744 17.3988C8.27017 19.1185 8.12949 20.9294 8.37499 22.7083C10.5947 40.1641 18.5668 56.3828 31.0319 68.8027C43.497 81.2225 59.7446 89.1355 77.2083 91.2917H78.7917C81.8642 91.2962 84.8308 90.1689 87.125 88.125C88.4432 86.946 89.4962 85.5008 90.2144 83.8847C90.9327 82.2686 91.2999 80.5185 91.2917 78.75V66.25C91.2406 63.3558 90.1867 60.569 88.3097 58.3653C86.4328 56.1616 83.8492 54.6776 81 54.1667V54.1667ZM83.0833 79.1667C83.0826 79.7583 82.9559 80.3429 82.7116 80.8818C82.4673 81.4206 82.1111 81.9012 81.6667 82.2917C81.2025 82.6959 80.6582 82.9976 80.0695 83.1771C79.4807 83.3566 78.8607 83.4098 78.25 83.3334C62.6454 81.3325 48.151 74.1937 37.053 63.0429C25.955 51.8921 18.885 37.3639 16.9583 21.75C16.892 21.1397 16.9501 20.5222 17.1292 19.935C17.3082 19.3477 17.6044 18.8029 18 18.3333C18.3905 17.8889 18.8711 17.5327 19.4099 17.2884C19.9487 17.0441 20.5334 16.9174 21.125 16.9167H33.625C34.5939 16.8951 35.5401 17.212 36.3006 17.8128C37.0611 18.4136 37.5884 19.2607 37.7917 20.2083C37.9583 21.3472 38.1667 22.4722 38.4167 23.5833C38.898 25.7798 39.5386 27.9383 40.3333 30.0417L34.5 32.75C34.0012 32.9788 33.5526 33.304 33.1798 33.7067C32.807 34.1094 32.5175 34.5817 32.3278 35.0967C32.1381 35.6116 32.052 36.1589 32.0744 36.7072C32.0968 37.2555 32.2272 37.794 32.4583 38.2917C38.455 51.1365 48.7802 61.4617 61.625 67.4584C62.6394 67.8751 63.7772 67.8751 64.7917 67.4584C65.3113 67.2725 65.7888 66.9852 66.1965 66.6133C66.6042 66.2413 66.934 65.7921 67.1667 65.2917L69.75 59.4584C71.904 60.2287 74.1024 60.8687 76.3333 61.375C77.4444 61.625 78.5694 61.8333 79.7083 62C80.6559 62.2033 81.5031 62.7306 82.1039 63.4911C82.7047 64.2516 83.0216 65.1977 83 66.1667L83.0833 79.1667Z"
              fill="currentColor"/>
    </symbol>
</svg>