<svg width="1440" height="330" viewBox="0 0 1440 330" fill="none" xmlns="http://www.w3.org/2000/svg">
<path d="M-201 329.6L-143.7 288.4C-86.4 247.2 28.2 164.8 142.8 164.8C257.4 164.8 372 247.2 486.6 247.2C601.2 247.2 715.8 164.8 830.4 151.152C945 136.475 1059.6 193.125 1174.2 178.447C1288.8 164.8 1403.4 82.4 1460.7 41.2L1518 0V329.6H1460.7C1403.4 329.6 1288.8 329.6 1174.2 329.6C1059.6 329.6 945 329.6 830.4 329.6C715.8 329.6 601.2 329.6 486.6 329.6C372 329.6 257.4 329.6 142.8 329.6C28.2 329.6 -86.4 329.6 -143.7 329.6H-201Z" fill="#4581F6"/>
</svg>
